<svg xmlns="http://www.w3.org/2000/svg" width="38.332" height="33.457" viewBox="0 0 38.332 33.457">
  <g id="Group_41" data-name="Group 41" transform="translate(1433.374 -4598.811)">
    <path id="Path_61" data-name="Path 61" d="M-1399.547,4617.574l.379-.151v-.011Zm-29.69-.151v.02l1.115.449c-.273-.118-.547-.238-.82-.358C-1429.028,4617.5-1429.119,4617.468-1429.237,4617.423Z" fill="none" stroke="#e20886" stroke-linecap="round" stroke-linejoin="round" stroke-width="1"/>
    <path id="Path_62" data-name="Path 62" d="M-1400.695,4618.068c.375-.162.749-.323,1.148-.493l.379-.152,2.455-.982c-.078.037-.158.074-.238.11a.324.324,0,0,0-.217.353q.008,5.344,0,10.687c0,.793.009,1.587,0,2.379a1.868,1.868,0,0,1-1.454,1.774,1.674,1.674,0,0,1-.324.024h-30.636a1.67,1.67,0,0,1-1.656-1.625c-.012-.147-.01-.3-.01-.443q0-6.382.005-12.763a.367.367,0,0,0-.252-.4l2.258.909,1.116.449a48.187,48.187,0,0,0,5.005,1.893,30.636,30.636,0,0,0,4.657,1.052" fill="none" stroke="#e20886" stroke-linecap="round" stroke-linejoin="round" stroke-width="1"/>
    <path id="Path_63" data-name="Path 63" d="M-1411.412,4620.846a33.057,33.057,0,0,0,10.717-2.778c.374-.163.749-.323,1.148-.493.123-.054.25-.108.379-.163v.011l2.455-.982c.237-.114.468-.238.7-.358a.813.813,0,0,0,.47-.773c0-2.194.005-4.387,0-6.58a2.8,2.8,0,0,0-.5-1.6,2.993,2.993,0,0,0-2.617-1.314q-4.165-.009-8.33,0h-14.435c-2.659,0-5.319,0-7.979,0a4.624,4.624,0,0,0-.994.1,3.051,3.051,0,0,0-2.471,2.893c-.009,2.162,0,4.324,0,6.486a.823.823,0,0,0,.48.791c.3.151.592.313.9.442l2.258.909v-.019c.119.045.209.073.3.112.273.119.547.239.82.356a48.385,48.385,0,0,0,5.006,1.9,30.872,30.872,0,0,0,4.657,1.052s.98.06,1.378.081" fill="none" stroke="#e20886" stroke-linecap="round" stroke-linejoin="round" stroke-width="1"/>
    <path id="Path_64" data-name="Path 64" d="M-1428.942,4617.534c.273.12.547.24.82.358l-1.116-.45v-.019C-1429.119,4617.468-1429.029,4617.5-1428.942,4617.534Z" fill="none" stroke="#e20886" stroke-linecap="round" stroke-linejoin="round" stroke-width="1"/>
    <path id="Path_65" data-name="Path 65" d="M-1399.168,4617.412v.011l-.379.151Z" fill="none" stroke="#e20886" stroke-linecap="round" stroke-linejoin="round" stroke-width="1"/>
    <path id="Path_66" data-name="Path 66" d="M-1407.305,4605.811c0-.752-.016-1.467.005-2.181a3.587,3.587,0,0,0-1.41-2.987,5.712,5.712,0,0,0-3.549-1.3c-1.343-.04-2.69-.033-4.035,0a5.545,5.545,0,0,0-3.027.963,3.736,3.736,0,0,0-1.788,3.338c.016.629,0,1.259,0,1.889v.283" fill="none" stroke="#e20886" stroke-linecap="round" stroke-linejoin="round" stroke-width="1"/>
    <rect id="Rectangle_82" data-name="Rectangle 82" width="5.581" height="5.581" transform="translate(-1417.081 4617.848)" fill="none" stroke="#007acc" stroke-linecap="round" stroke-linejoin="round" stroke-width="1"/>
  </g>
</svg>
