<svg xmlns="http://www.w3.org/2000/svg" width="698.249" height="300.271" viewBox="0 0 698.249 300.271">
  <g id="Group_91" data-name="Group 91" transform="translate(-2061.9 -800.64)">
    <path id="Path_161" data-name="Path 161" d="M2157.264,917.595v-82.08a5.611,5.611,0,0,0-5.611-5.611h-57.726a5.61,5.61,0,0,0-5.61,5.611v194.8h68.947Z" fill="#007acc"/>
    <path id="Path_162" data-name="Path 162" d="M2259.864,1001.835v-82.08a5.611,5.611,0,0,0-5.612-5.611h-57.725a5.611,5.611,0,0,0-5.611,5.611V1030.32h68.948Z" fill="#e20886"/>
    <text id="_13_of_employees_in_the_manufacturing_industry_have_experienced_mental_health_issues_in_the_last_two_years" data-name="13% of employees in the manufacturing industry have experienced mental health issues in the last two years" transform="translate(2278.149 912.423)" fill="#d70a87" font-size="24" font-family="MarkOT-Bold, Mark OT" font-weight="700"><tspan x="0" y="24">13%</tspan><tspan y="24" font-size="16.826" font-family="MarkOT-Book, Mark OT" font-weight="400"> </tspan><tspan y="24" fill="#1d1d1b" font-size="16.826" font-family="MarkOT-Book, Mark OT" font-weight="400">of employees in the manufacturing industry have </tspan><tspan x="0" y="52.8" fill="#1d1d1b" font-size="16.826" font-family="MarkOT-Book, Mark OT" font-weight="400">experienced mental health issues in the last two years</tspan></text>
    <text id="_27_of_employees_across_the_country_have_experienced_mental_health_issues_in_the_last_two_years" data-name="27% of employees across the country have experienced mental health issues in the last two years" transform="translate(2177.349 828.184)" fill="#007acc" font-size="24" font-family="MarkOT-Bold, Mark OT" font-weight="700"><tspan x="0" y="24">27%</tspan><tspan y="24" xml:space="preserve" fill="#1d1d1b" font-size="16.826" font-family="MarkOT-Book, Mark OT" font-weight="400"> of employees across the country have </tspan><tspan x="0" y="52.8" fill="#1d1d1b" font-size="16.826" font-family="MarkOT-Book, Mark OT" font-weight="400">experienced mental health issues in the last two years</tspan></text>
    <path id="Path_163" data-name="Path 163" d="M2062.4,800.64v229.68h238.32" fill="none" stroke="#231f20" stroke-width="1"/>
    <text id="National_average" data-name="National average" transform="translate(2084.86 1035.911)" font-size="12" font-family="GothamRounded-Book, Gotham Rounded"><tspan x="12" y="10">National </tspan><tspan x="13" y="24.4">average</tspan></text>
    <text id="Manufacturing_industry" data-name="Manufacturing industry" transform="translate(2177.78 1035.911)" font-size="12" font-family="GothamRounded-Book, Gotham Rounded"><tspan x="4" y="10">Manufacturing </tspan><tspan x="22" y="24.4">industry</tspan></text>
  </g>
</svg>
