<svg xmlns="http://www.w3.org/2000/svg" width="35.81" height="40.473" viewBox="0 0 35.81 40.473">
  <g id="Group_9" data-name="Group 9" transform="translate(1435.11 -5611.747)">
    <path id="Path_24" data-name="Path 24" d="M-1407.611,5636.136s1,10.545-10.159,7.525c0,0,4.727-8.01-.92-15.232s-9.848,1.575-9.455,2.889c0,0-7.616.131-6.3,5.909s7.485,6.96,11.688,6.96,4.666-.4,4.666-.4l-1.043,3.064m-.221,4.631a2.866,2.866,0,0,1-1.179.236,2.029,2.029,0,0,1-2.06-1.29,2.742,2.742,0,0,1-.064-1.966,2.416,2.416,0,0,1,1.29-1.321,4.061,4.061,0,0,1,1.447-.33,1.762,1.762,0,0,1,.708.126,2.122,2.122,0,0,1,1.211,1.305,2.467,2.467,0,0,1-1.353,3.24Z" fill="none" stroke="#de2189" stroke-linecap="round" stroke-linejoin="round" stroke-width="1"/>
    <path id="Path_25" data-name="Path 25" d="M-1414.831,5620.1v8.525a7.515,7.515,0,0,0,7.515,7.516,7.516,7.516,0,0,0,7.516-7.516v-8.757m-11.718-6.225a7.5,7.5,0,0,0-3.313,6.231v8.757m15.031-.231v-8.526a7.5,7.5,0,0,0-3.134-6.106m-8.159-1.516v2.468m7.654-2.468v2.468" fill="none" stroke="#008ecf" stroke-linecap="round" stroke-linejoin="round" stroke-width="1"/>
  </g>
</svg>
