<svg xmlns="http://www.w3.org/2000/svg" width="48.439" height="34.73" viewBox="0 0 48.439 34.73">
  <g id="Group_43" data-name="Group 43" transform="translate(1434.219 -3871.991)">
    <path id="Path_73" data-name="Path 73" d="M-1423.074,3899.933l6.184-.1s-.065,2.7,0,3.525-6.033.7-6.033.7Z" fill="none" stroke="#e20886" stroke-linecap="round" stroke-linejoin="round" stroke-width="1"/>
    <path id="Path_74" data-name="Path 74" d="M-1419.745,3898.315s5.235-3.6,6.079-5.048" fill="none" stroke="#007acc" stroke-linecap="round" stroke-linejoin="round" stroke-width="1"/>
    <path id="Path_75" data-name="Path 75" d="M-1420,3898.315a10.774,10.774,0,0,1-4.978-5.163" fill="none" stroke="#007acc" stroke-linecap="round" stroke-linejoin="round" stroke-width="1"/>
    <line id="Line_4" data-name="Line 4" y1="2.07" transform="translate(-1419.982 3898.422)" fill="none" stroke="#007acc" stroke-linecap="round" stroke-linejoin="round" stroke-width="1"/>
    <path id="Path_76" data-name="Path 76" d="M-1416.473,3890.932a11.348,11.348,0,0,1-4.656.931c-3.478,0-7.017-1.552-8.134-5.092-.807-2.545-1.367-5.216-.249-7.761a9.527,9.527,0,0,1,5.09-5.214,16.011,16.011,0,0,1,5.715-1.3,7,7,0,0,1,2.792.5,8.364,8.364,0,0,1,4.781,5.154C-1408.835,3883.107-1411.568,3888.758-1416.473,3890.932Z" fill="none" stroke="#e20886" stroke-width="1"/>
    <path id="Path_77" data-name="Path 77" d="M-1433.562,3900.981a13.615,13.615,0,0,1,7.277-7.454,22.868,22.868,0,0,1,8.167-1.865,10,10,0,0,1,3.992.709,11.965,11.965,0,0,1,6.835,7.367s1.023,1.126.967,6.346" fill="none" stroke="#e20886" stroke-linecap="round" stroke-linejoin="round" stroke-width="1"/>
    <path id="Path_78" data-name="Path 78" d="M-1386.28,3894.686v11.536h-17.4v-6.813" fill="none" stroke="#007acc" stroke-linecap="round" stroke-linejoin="round" stroke-width="1"/>
    <path id="Path_79" data-name="Path 79" d="M-1398.946,3899.054a14.576,14.576,0,0,0,4.575,1.036c4.074-.134,8.091-3.186,8.091-3.186v-3.239h-17.4v3.239a10.7,10.7,0,0,0,2.293,1.228" fill="none" stroke="#007acc" stroke-linecap="round" stroke-linejoin="round" stroke-width="1"/>
    <path id="Path_80" data-name="Path 80" d="M-1398.253,3892.21v-.893a1.375,1.375,0,0,1,1.37-1.37h3.565a1.375,1.375,0,0,1,1.37,1.37v.893" fill="none" stroke="#007acc" stroke-linecap="round" stroke-linejoin="round" stroke-width="1"/>
  </g>
</svg>
