<svg xmlns="http://www.w3.org/2000/svg" xmlns:xlink="http://www.w3.org/1999/xlink" width="34.956" height="37.784" viewBox="0 0 34.956 37.784">
  <defs>
    <clipPath id="clip-path">
      <rect id="Rectangle_59" data-name="Rectangle 59" width="34.956" height="37.784" transform="translate(-1435.019 5071.54)" fill="none"/>
    </clipPath>
  </defs>
  <g id="Group_8" data-name="Group 8" transform="translate(1435.019 -5071.54)">
    <g id="Group_7" data-name="Group 7" clip-path="url(#clip-path)">
      <path id="Path_20" data-name="Path 20" d="M-1409.7,5108.457h7.872c.179,0,.807.086.905-.042s0-.687,0-.83v-25.633c0-.432.176-1.249-.149-1.512a8.5,8.5,0,0,0-1.838-.8l-2.975-1.3-5.148-2.246-.306-.134" fill="none" stroke="#007acc" stroke-linecap="round" stroke-linejoin="round" stroke-width="1"/>
      <path id="Path_21" data-name="Path 21" d="M-1433.857,5078.864q3.816-1.1,7.631-2.208l12.094-3.5q1.4-.405,2.8-.809v35.083a3,3,0,0,1,0,.888c-.08.194.019.116-.286.138-1.886.133-3.828,0-5.719,0h-2.79c-.476,0-.691.167-.691-.327v-3.016a4.451,4.451,0,0,0,0-1.22c-.081-.23.041-.129-.259-.169a24.236,24.236,0,0,0-3.025,0c-.1,0-.628-.072-.7,0s0,.651,0,.762v3.2c0,.548.183.766-.367.766h-8.441c-.258,0-.457.073-.552-.1a3.161,3.161,0,0,1,0-1.018v-25.217" fill="none" stroke="#e20886" stroke-linecap="round" stroke-linejoin="round" stroke-width="1"/>
      <path id="Path_22" data-name="Path 22" d="M-1404.4,5100.623h-3.714c-.44,0-.509.115-.519-.314-.017-.731,0-1.465,0-2.2v-1.06c0-.1-.07-.567,0-.64.123-.129.909-.022,1.1-.022h2.373c.135,0,.568-.077.68,0s.015-.015.083.182a3.425,3.425,0,0,1,0,.916v3.136Zm0-7.143h-3.714c-.44,0-.509.115-.519-.314-.017-.731,0-1.466,0-2.2v-1.06c0-.1-.07-.566,0-.64.123-.13.909-.022,1.1-.022h2.373c.135,0,.568-.078.68,0s.015-.015.083.183a3.417,3.417,0,0,1,0,.915v3.136Zm0-7.144h-3.714c-.44,0-.509.116-.519-.314-.017-.731,0-1.465,0-2.2v-1.061c0-.1-.07-.566,0-.64.123-.129.909-.022,1.1-.022h2.373c.135,0,.568-.077.68,0s.015-.015.083.183a3.417,3.417,0,0,1,0,.915v3.136Z" fill="none" stroke="#007acc" stroke-linecap="round" stroke-linejoin="round" stroke-width="1"/>
      <path id="Path_23" data-name="Path 23" d="M-1414.4,5100.623h-3.713c-.441,0-.51.115-.521-.314-.015-.731,0-1.465,0-2.2v-1.06c0-.1-.069-.567,0-.64.123-.129.91-.022,1.1-.022h2.372c.135,0,.568-.077.68,0s.015-.015.083.182a3.385,3.385,0,0,1,0,.916v3.136Zm-6.179,0h-3.714c-.44,0-.51.115-.52-.314-.016-.731,0-1.465,0-2.2v-1.06c0-.1-.069-.567,0-.64.123-.129.909-.022,1.1-.022h2.372c.136,0,.569-.077.68,0s.016-.015.084.182a3.425,3.425,0,0,1,0,.916v3.136Zm-6.18,0h-3.713c-.441,0-.51.115-.521-.314-.015-.731,0-1.465,0-2.2v-1.06c0-.1-.069-.567,0-.64.123-.129.91-.022,1.1-.022h2.372c.135,0,.568-.077.68,0s.015-.015.083.182a3.385,3.385,0,0,1,0,.916v3.136Zm12.359-7.143h-3.713c-.441,0-.51.115-.521-.314-.015-.731,0-1.466,0-2.2v-1.06c0-.1-.069-.566,0-.64.123-.13.91-.022,1.1-.022h2.372c.135,0,.568-.078.68,0s.015-.015.083.183a3.377,3.377,0,0,1,0,.915v3.136Zm-6.179,0h-3.714c-.44,0-.51.115-.52-.314-.016-.731,0-1.466,0-2.2v-1.06c0-.1-.069-.566,0-.64.123-.13.909-.022,1.1-.022h2.372c.136,0,.569-.078.68,0s.016-.015.084.183a3.417,3.417,0,0,1,0,.915v3.136Zm-6.18,0h-3.713c-.441,0-.51.115-.521-.314-.015-.731,0-1.466,0-2.2v-1.06c0-.1-.069-.566,0-.64.123-.13.91-.022,1.1-.022h2.372c.135,0,.568-.078.68,0s.015-.015.083.183a3.377,3.377,0,0,1,0,.915v3.136Zm12.359-7.144h-3.713c-.441,0-.51.116-.521-.314-.015-.731,0-1.465,0-2.2v-1.061c0-.1-.069-.566,0-.64.123-.129.91-.022,1.1-.022h2.372c.135,0,.568-.077.68,0s.015-.015.083.183a3.378,3.378,0,0,1,0,.915v3.136Zm-6.179,0h-3.714c-.44,0-.51.116-.52-.314-.016-.731,0-1.465,0-2.2v-1.061c0-.1-.069-.566,0-.64.123-.129.909-.022,1.1-.022h2.372c.136,0,.569-.077.68,0s.016-.015.084.183a3.417,3.417,0,0,1,0,.915v3.136Zm-6.18,0h-3.713c-.441,0-.51.116-.521-.314-.015-.731,0-1.465,0-2.2v-1.061c0-.1-.069-.566,0-.64.123-.129.91-.022,1.1-.022h2.372c.135,0,.568-.077.68,0s.015-.015.083.183a3.378,3.378,0,0,1,0,.915v3.136Z" fill="none" stroke="#e20886" stroke-linecap="round" stroke-linejoin="round" stroke-width="1"/>
    </g>
  </g>
</svg>
