<svg xmlns="http://www.w3.org/2000/svg" width="29.723" height="37.016" viewBox="0 0 29.723 37.016">
  <g id="Group_6" data-name="Group 6" transform="translate(1434.186 -4272.052)">
    <path id="Path_11" data-name="Path 11" d="M-1421.2,4281.514l.029.039c-.023-.025-.045-.05-.069-.074-.248-.238-.483-.491-.746-.711a3.832,3.832,0,0,0-1.677-.857,3.039,3.039,0,0,0-3.641,2.894,5.043,5.043,0,0,0,.638,2.5,10.053,10.053,0,0,0,2.032,2.585,18.767,18.767,0,0,0,3.337,2.507.219.219,0,0,0,.265,0,19.4,19.4,0,0,0,2.762-1.984,12.016,12.016,0,0,0,2.229-2.466,5.69,5.69,0,0,0,1.006-2.743,2.981,2.981,0,0,0-.862-2.437,2.926,2.926,0,0,0-3.009-.792,4.359,4.359,0,0,0-1.759,1.066c-.176.159-.356.315-.534.473Zm0,0c.178-.158.358-.314.534-.473a4.359,4.359,0,0,1,1.759-1.066,2.926,2.926,0,0,1,3.009.792,2.981,2.981,0,0,1,.862,2.438,5.69,5.69,0,0,1-1.006,2.743,12.016,12.016,0,0,1-2.229,2.466,19.4,19.4,0,0,1-2.762,1.984.219.219,0,0,1-.265,0,18.767,18.767,0,0,1-3.337-2.507,10.053,10.053,0,0,1-2.032-2.585,5.043,5.043,0,0,1-.638-2.5,3.039,3.039,0,0,1,3.641-2.894,3.832,3.832,0,0,1,1.677.857c.263.221.5.474.746.711.024.024.046.048.069.074l-.029-.039Z" transform="translate(0.502 0.574)" fill="none" stroke="#008ecf" stroke-linecap="round" stroke-linejoin="round" stroke-width="1"/>
    <path id="Path_12" data-name="Path 12" d="M-1405.071,4294.468a.6.6,0,0,1-.5.266s-1.629,0-1.778.008a.69.69,0,0,0-.716.735c-.011.153,0,3.541-.01,4.484a2.211,2.211,0,0,1-.711,1.719,2.279,2.279,0,0,1-1.862.452c-.1-.016-.209-.03-.315-.043-.148-.02-.3-.039-.443-.061l-.929-.141c-.537-.081-1.073-.163-1.612-.24a.742.742,0,0,0-.586.15.743.743,0,0,0-.252.553c-.011.294-.005,5.625-.005,5.625a.594.594,0,0,1-.594.593h-13.334a.593.593,0,0,1-.593-.593s-.005-10.089.009-12.319a1.343,1.343,0,0,0-.439-1.082,12.538,12.538,0,0,1-3.605-6.35,12.4,12.4,0,0,1,.705-7.89,12.386,12.386,0,0,1,6.719-6.7,12.3,12.3,0,0,1,10.527.23,12.564,12.564,0,0,1,7,8.713,11.861,11.861,0,0,1,.306,3.6,5.049,5.049,0,0,0,.741,3.032c.533.9,2.147,4.27,2.213,4.437.032.081.067.168.109.268a.6.6,0,0,1-.053.559Z" fill="none" stroke="#de2189" stroke-linecap="round" stroke-linejoin="round" stroke-width="1"/>
  </g>
</svg>
