<svg xmlns="http://www.w3.org/2000/svg" width="41.94" height="33.083" viewBox="0 0 41.94 33.083">
  <g id="Group_42" data-name="Group 42" transform="translate(1433.916 -6050.36)">
    <path id="Path_67" data-name="Path 67" d="M-1423.473,6078.574l6.526-.1s-.069,2.852,0,3.72-6.366.743-6.366.743l-.16-4.36Z" fill="none" stroke="#de2189" stroke-linecap="round" stroke-linejoin="round" stroke-width="1"/>
    <path id="Path_68" data-name="Path 68" d="M-1420.093,6076.961s3.774-4.924,4.612-6.364m-4.861,6.364s-3.765-2.041-5.179-5.541m5.193,7.7v-2.056" fill="none" stroke="#008ecf" stroke-linecap="round" stroke-linejoin="round" stroke-width="1"/>
    <path id="Path_69" data-name="Path 69" d="M-1399.867,6064.3a8.254,8.254,0,0,1-3.39.679c-2.532,0-5.11-1.132-5.923-3.711-.588-1.854-.995-3.8-.181-5.655a6.938,6.938,0,0,1,3.707-3.8,11.641,11.641,0,0,1,4.16-.951,5.079,5.079,0,0,1,2.033.362,6.094,6.094,0,0,1,3.482,3.755c1.673,3.619-.317,7.736-3.888,9.32Z" fill="none" stroke="#008ecf" stroke-width="1"/>
    <path id="Path_70" data-name="Path 70" d="M-1412.31,6071.619a9.921,9.921,0,0,1,5.3-5.431,16.649,16.649,0,0,1,5.947-1.359,7.274,7.274,0,0,1,2.907.517,8.712,8.712,0,0,1,4.976,5.368s.746.82.7,4.623" fill="none" stroke="#008ecf" stroke-linecap="round" stroke-linejoin="round" stroke-width="1"/>
    <path id="Path_71" data-name="Path 71" d="M-1417.506,6069.355a9.79,9.79,0,0,1-4.017.8c-3,0-6.055-1.34-7.019-4.394-.7-2.2-1.179-4.5-.215-6.7a8.222,8.222,0,0,1,4.393-4.5,13.81,13.81,0,0,1,4.93-1.127,6.022,6.022,0,0,1,2.41.429,7.218,7.218,0,0,1,4.125,4.447c1.983,4.286-.374,9.161-4.607,11.037Z" fill="none" stroke="#de2189" stroke-width="1"/>
    <path id="Path_72" data-name="Path 72" d="M-1408.749,6082.429c.049-4.5-.834-5.475-.834-5.475a10.322,10.322,0,0,0-5.9-6.357,8.63,8.63,0,0,0-3.444-.613,19.74,19.74,0,0,0-7.048,1.61,11.755,11.755,0,0,0-6.279,6.432,14.023,14.023,0,0,0-1.058,2.577" fill="none" stroke="#de2189" stroke-linecap="round" stroke-linejoin="round" stroke-width="1"/>
  </g>
</svg>
